<svg width="175" height="175" xmlns="http://www.w3.org/2000/svg">
 <!-- Created with Method Draw - http://github.com/duopixel/Method-Draw/ -->

 <g>
  <title>background</title>
  <rect fill="none" id="canvas_background" height="177" width="177" y="-1" x="-1"/>
 </g>
 <g>
  <title>Layer 1</title>
  <path stroke="#de5833" id="svg_15" d="m0.298549,87.537971l0,0c0,-48.218337 39.09179,-87.30702 87.313966,-87.30702l0,0c23.157092,0 45.365738,9.198392 61.740287,25.571634c16.374544,16.373242 25.573655,38.580128 25.573655,61.735386l0,0c0,48.218325 -39.091784,87.307009 -87.313943,87.307009l0,0c-48.222176,0 -87.313966,-39.088689 -87.313966,-87.307009zm87.313966,-87.30702l0,174.614029m-87.313966,-87.307009l174.627909,0" fill-opacity="null" stroke-opacity="null" stroke-width="0" fill="#de5833"/>
  <text font-weight="bold" transform="matrix(3.546,0,0,3.44496,-282.774,-2.19557) " xml:space="preserve" text-anchor="start" font-family="'League Gothic', sans-serif" font-size="32" id="svg_2" y="37.667512" x="86.023587" stroke-width="4" stroke="#ffffff" fill="#ffffff">LS</text>
  <path stroke="#de5833" id="svg_16" d="m28.941839,51.499671c-0.00872,-2.578793 -0.018125,-4.644567 -0.02584,-4.926194c-0.00042,-0.018268 -0.000855,-0.028924 -0.001315,-0.031969l-0.050775,0c-0.00081,0 -0.00161,0.095906 -0.00218,0.274016c-0.000565,0.173543 -0.0009,0.417113 -0.0009,0.665249l0,39.199474c0,0.246614 0.000315,0.482572 0.0009,0.662205c0.000585,0.176588 0.001355,0.272493 0.00218,0.272493l0.09182,0c0.00081,0 0.001585,-0.094383 0.00217,-0.272493c0.000585,-0.17811 0.00091,-0.414068 0.00091,-0.662205l0,-26.084777c-0.00018,-3.027874 -0.00797,-6.329764 -0.01697,-9.0958zm-0.004335,1.327454c0.004025,1.196535 0.007645,2.551391 0.010345,3.857533c-0.00234,-0.281627 -0.004795,-0.490184 -0.0071,-0.656115c-0.005075,-0.347087 -0.01004,-0.487139 -0.013125,-0.543465c0.000015,-0.202467 0.00002,-0.430814 0.00002,-0.67895c0,-1.322887 -0.000275,-3.209029 -0.00178,-4.871391c-0.000015,-0.015223 -0.000025,-0.030446 -0.000045,-0.045669c0.00382,0.767244 0.00798,1.785669 0.011685,2.938058zm0.015135,32.910813l-0.08566,0l0,-37.323989l0.04771,0l0,0.003045c0.00208,-0.038058 0.003875,0.587612 0.00525,2.018583c0.00125,1.362467 0.001565,3.139003 0.00156,4.370551c0.00001,0.90273 -0.000135,1.508609 -0.000135,1.508609l-0.000245,0.992546l0.00328,0.010656c0.000015,0 0.00758,0.027402 0.015,0.54042c0.00713,0.468871 0.012705,1.40357 0.013225,2.461575c0.00002,0.094383 0.000025,0.188766 0.00002,0.27706l0,25.140945l-0.000005,0z" fill-opacity="null" stroke-opacity="null" stroke-width="0" fill="#de5833"/>
 </g>
</svg>