<svg width="500" height="500" xmlns="http://www.w3.org/2000/svg">
 <!-- Created with Method Draw - http://github.com/duopixel/Method-Draw/ -->

 <g>
  <title>background</title>
  <rect fill="none" id="canvas_background" height="502" width="502" y="-1" x="-1"/>
  <g display="none" overflow="visible" y="0" x="0" height="100%" width="100%" id="canvasGrid">
   <rect fill="url(#gridpattern)" stroke-width="0" y="0" x="0" height="100%" width="100%"/>
  </g>
 </g>
 <g>
  <title>Layer 1</title>
  <ellipse id="svg_1" cy="91.445313" cx="127.5" stroke-width="1.5" stroke="#000" fill="#fff"/>
  <ellipse ry="235" rx="235" id="svg_10" cy="250" cx="250" stroke-width="28" stroke="#de5834" fill="none"/>
  <path id="svg_18" d="m251.5,90.445313c0,0 -160,205 -160,205c0,0 83,2 83,2c0,0 -3,70 -3,70c0,0 154,-1 154,-1c0,0 1,-68 1,-68c0,0 84,-1 84,-1c0,0 -159,-207 -159,-207z" stroke-opacity="null" stroke-width="8" stroke="#de5834" fill="#de5834"/>
 </g>
</svg>